<?xml version="1.0" standalone="no"?>
<!DOCTYPE svg PUBLIC "-//W3C//DTD SVG 20010904//EN"
 "http://www.w3.org/TR/2001/REC-SVG-20010904/DTD/svg10.dtd">
<svg version="1.0" xmlns="http://www.w3.org/2000/svg"
 width="860.000000pt" height="900.000000pt" viewBox="0 0 860.000000 900.000000"
 preserveAspectRatio="xMidYMid meet">

<g transform="translate(0.000000,900.000000) scale(0.100000,-0.100000)"
fill="#000000" stroke="none">
<path d="M4070 8490 c-387 -26 -705 -90 -1049 -211 -640 -225 -1198 -601
-1645 -1109 -470 -533 -785 -1183 -910 -1875 -45 -249 -60 -418 -60 -700 1
-280 14 -436 60 -690 284 -1571 1498 -2812 3062 -3130 319 -64 759 -92 1067
-66 815 69 1531 353 2165 860 126 101 405 374 521 512 483 569 785 1254 890
2014 26 190 37 610 20 804 -67 800 -350 1515 -848 2141 -137 173 -420 455
-593 594 -588 470 -1273 755 -2020 841 -166 19 -492 26 -660 15z m-1445 -2710
c303 -302 555 -550 560 -550 5 0 255 246 556 546 428 428 551 545 567 542 12
-2 253 -234 560 -540 345 -345 546 -538 559 -538 12 0 214 194 560 538 297
296 548 542 558 546 15 5 129 -103 567 -541 363 -363 548 -554 548 -568 0 -24
-1091 -1120 -1109 -1114 -6 2 -258 250 -559 552 -302 301 -553 547 -559 547
-19 0 -1103 -1086 -1103 -1105 0 -11 223 -240 545 -560 338 -336 545 -548 545
-560 0 -19 -1091 -1115 -1109 -1115 -5 0 -257 246 -560 547 -372 369 -551 554
-551 568 0 13 179 199 545 565 300 300 545 550 545 555 0 12 -1084 1098 -1101
1104 -6 2 -260 -245 -564 -549 -483 -483 -555 -551 -571 -542 -27 15 -1104
1095 -1104 1107 0 13 1102 1115 1115 1115 5 0 257 -247 560 -550z"/>
</g>
</svg>
